<?xml version="1.0" encoding="UTF-8"?>
<svg version="1.1" xmlns="http://www.w3.org/2000/svg" width="256" height="256">
<path d="M0 0 C84.48 0 168.96 0 256 0 C256 84.48 256 168.96 256 256 C171.52 256 87.04 256 0 256 C0 171.52 0 87.04 0 0 Z " fill="#7ECF36" transform="translate(0,0)"/>
<path d="M0 0 C84.48 0 168.96 0 256 0 C256 19.8 256 39.6 256 60 C234.625 60.1875 234.625 60.1875 227.93994141 60.20776367 C226.16045218 60.23424652 224.38098849 60.26253186 222.6015625 60.29296875 C221.70268311 60.28898071 220.80380371 60.28499268 219.87768555 60.28088379 C210.22900522 60.49393376 202.99386411 64.83169969 195.625 70.75 C194.50316156 71.63872488 193.38075431 72.52673219 192.2578125 73.4140625 C191.70770508 73.85266602 191.15759766 74.29126953 190.59082031 74.74316406 C188.26144634 76.58349819 185.88211623 78.3536828 183.5 80.125 C177.68751881 84.4726736 171.90315233 88.85681717 166.125 93.25 C165.22072266 93.93594238 164.31644531 94.62188477 163.38476562 95.32861328 C159.68663938 98.14345101 156.01425326 100.9508332 152.4921875 103.984375 C150 106 150 106 148 106 C147.5978125 104.6078125 147.5978125 104.6078125 147.1875 103.1875 C145.8647273 99.43599462 145.8647273 99.43599462 143 97 C139.60895856 96.89013905 136.35675698 97.02852359 132.98046875 97.29296875 C128.86963582 97.46903794 127.30889878 97.26201984 124.1171875 94.5546875 C123.41851562 93.71164063 122.71984375 92.86859375 122 92 C116.57973088 89.28986544 109.47330852 91.3045793 103.875 92.75 C103.19824219 92.90726562 102.52148438 93.06453125 101.82421875 93.2265625 C97.24949595 94.37687964 93.53789103 95.74556018 90 99 C88.93549409 101.96015757 88.38621384 104.88365381 88 108 C87.40050537 108.16081055 86.80101074 108.32162109 86.18334961 108.48730469 C83.43190551 109.23149773 80.68478865 109.99061656 77.9375 110.75 C76.99455078 111.00265625 76.05160156 111.2553125 75.08007812 111.515625 C69.50897849 113.06854476 64.88043136 114.88627125 60 118 C60.495 125.425 60.495 125.425 61 133 C59.54207031 133.17015625 58.08414063 133.3403125 56.58203125 133.515625 C54.65874456 133.75955404 52.7355732 134.00439355 50.8125 134.25 C49.85279297 134.35957031 48.89308594 134.46914062 47.90429688 134.58203125 C42.57646825 135.28257619 38.77868664 135.83796833 35 140 C33.81304447 143.56086658 33.64904582 146.97331024 33.4375 150.6875 C33.39431641 151.38939453 33.35113281 152.09128906 33.30664062 152.81445312 C33.2008264 154.54275206 33.09993419 156.2713511 33 158 C31.80375 158.350625 30.6075 158.70125 29.375 159.0625 C24.55302471 160.90921394 21.53354256 163.48296031 19 168 C17.99724631 171.3071588 17.40021019 174.57061272 17 178 C16.08476562 178.27714844 15.16953125 178.55429688 14.2265625 178.83984375 C13.03804687 179.20207031 11.84953125 179.56429687 10.625 179.9375 C8.84996094 180.47697266 8.84996094 180.47697266 7.0390625 181.02734375 C2.71911019 182.37633229 2.71911019 182.37633229 0 186 C0 124.62 0 63.24 0 0 Z " fill="#7FCF36" transform="translate(0,0)"/>
<path d="M0 0 C1.45432686 0.00424484 1.45432686 0.00424484 2.93803406 0.00857544 C6.0252228 0.01974259 9.11211814 0.04484098 12.19921875 0.0703125 C14.29621976 0.08034677 16.39322533 0.08947184 18.49023438 0.09765625 C23.62259897 0.11796636 28.75433161 0.15712194 33.88671875 0.1953125 C33.88671875 7.7853125 33.88671875 15.3753125 33.88671875 23.1953125 C31.19902344 23.18628906 28.51132813 23.17726563 25.7421875 23.16796875 C23.10408957 23.18303692 20.46635733 23.20998594 17.82836914 23.23803711 C16.01200959 23.25107896 14.19551704 23.25200172 12.37915039 23.23999023 C0.99904528 23.17424547 -7.08650657 23.51713469 -16.11328125 31.1953125 C-17.64145083 32.34091771 -19.17135424 33.48421435 -20.703125 34.625 C-22.15613536 35.76863656 -23.6053348 36.91713072 -25.05078125 38.0703125 C-26.60345113 39.29517841 -28.15683851 40.51913534 -29.7109375 41.7421875 C-30.83072998 42.62487305 -30.83072998 42.62487305 -31.97314453 43.52539062 C-35.83418185 46.53810968 -39.77919249 49.43502529 -43.73046875 52.328125 C-46.04683089 54.14324156 -48.08206064 56.06961652 -50.11328125 58.1953125 C-48.75203125 59.4946875 -48.75203125 59.4946875 -47.36328125 60.8203125 C-42.8162534 66.12696148 -41.68720572 72.53423931 -40.11328125 79.1953125 C-39.68015625 80.93554688 -39.68015625 80.93554688 -39.23828125 82.7109375 C-36.71168452 93.15744323 -34.27537015 104.55314587 -37.11328125 115.1953125 C-36.00855469 115.15921875 -34.90382812 115.123125 -33.765625 115.0859375 C-28.61316364 115.09047212 -23.72180453 115.97030584 -18.67578125 116.9453125 C-17.78568359 117.10257812 -16.89558594 117.25984375 -15.97851562 117.421875 C-9.91683322 118.5731076 -4.63336106 120.44497471 0.88671875 123.1953125 C0.88671875 124.1853125 0.88671875 125.1753125 0.88671875 126.1953125 C-7.70644154 130.81015784 -16.57723148 131.88563198 -26.11328125 133.1953125 C-27.19077637 133.35410889 -27.19077637 133.35410889 -28.29003906 133.51611328 C-58.9036734 137.9814862 -58.9036734 137.9814862 -70.95428276 134.69290829 C-73.41110978 134.12667038 -75.59926488 134.07838195 -78.12063599 134.08851624 C-79.12979568 134.09003189 -80.13895538 134.09154755 -81.17869568 134.09310913 C-82.28004349 134.0998465 -83.3813913 134.10658386 -84.51611328 134.11352539 C-86.26316811 134.11812523 -86.26316811 134.11812523 -88.04551697 134.12281799 C-90.57677011 134.12997516 -93.10801769 134.13936625 -95.63925552 134.15071297 C-99.64970831 134.16809275 -103.6601445 134.17861685 -107.67062378 134.18663025 C-119.07439953 134.21074667 -130.47812307 134.24651556 -141.88183594 134.29125977 C-148.18191382 134.31590158 -154.48197095 134.3332081 -160.78209007 134.34281915 C-164.11131343 134.34826215 -167.44034027 134.35877643 -170.76953506 134.37620735 C-174.49109051 134.39551135 -178.21248311 134.40233229 -181.93408203 134.40649414 C-183.02328445 134.41525574 -184.11248688 134.42401733 -185.23469543 134.43304443 C-191.76894233 134.42473926 -197.76593476 133.7401901 -204.11328125 132.1953125 C-204.81840914 132.02929566 -205.52353703 131.86327883 -206.25003242 131.69223118 C-208.21040807 131.2172109 -210.16217564 130.70707791 -212.11328125 130.1953125 C-212.76683594 130.0303125 -213.42039063 129.8653125 -214.09375 129.6953125 C-217.09761675 128.90253942 -218.87770437 128.43088938 -221.11328125 126.1953125 C-220.96484375 124.17578125 -220.96484375 124.17578125 -220.11328125 122.1953125 C-215.12535148 119.87334519 -210.55897492 118.76257226 -205.11328125 118.1953125 C-205.17515625 117.1640625 -205.23703125 116.1328125 -205.30078125 115.0703125 C-205.01618679 109.18869364 -203.04106258 105.82289692 -198.80078125 101.8828125 C-195.75527064 99.17805832 -193.12593217 98.67637784 -189.11328125 98.1953125 C-189.14808594 97.17050781 -189.18289062 96.14570313 -189.21875 95.08984375 C-189.2469016 93.72918314 -189.27420029 92.3685047 -189.30078125 91.0078125 C-189.32591797 90.33427734 -189.35105469 89.66074219 -189.37695312 88.96679688 C-189.44271057 84.47337169 -188.90950232 81.73300343 -186.11328125 78.1953125 C-180.10286357 72.59983997 -170.68760035 72.95574723 -162.9140625 73.125 C-162.31980469 73.14820313 -161.72554687 73.17140625 -161.11328125 73.1953125 C-161.44328125 72.0196875 -161.77328125 70.8440625 -162.11328125 69.6328125 C-163.87070563 62.20966174 -163.87070563 62.20966174 -163.11328125 58.1953125 C-158.06132502 53.6455187 -151.69911073 51.91274495 -145.23828125 50.3828125 C-143.95824219 50.05893555 -143.95824219 50.05893555 -142.65234375 49.72851562 C-136.500062 48.1953125 -136.500062 48.1953125 -134.11328125 48.1953125 C-134.19578125 47.1434375 -134.27828125 46.0915625 -134.36328125 45.0078125 C-134.06229008 40.41769715 -133.54660973 39.2199114 -130.11328125 36.1953125 C-121.6035935 31.72306784 -111.70831217 29.38217429 -102.11328125 30.1953125 C-98.52775244 31.83218435 -97.3201307 32.88503833 -95.11328125 36.1953125 C-91.74131049 36.30758678 -88.50084593 36.1637112 -85.14257812 35.90234375 C-81.1621228 35.73296267 -79.35908288 36.01614192 -76.1015625 38.390625 C-73.97361571 41.39232598 -73.6019733 42.61615683 -74.11328125 46.1953125 C-71.55052023 44.23732058 -68.98812911 42.27884507 -66.42578125 40.3203125 C-65.64702637 39.72532959 -64.86827148 39.13034668 -64.06591797 38.51733398 C-60.6233739 35.88577725 -57.18161965 33.25356597 -53.7578125 30.59765625 C-44.33356819 23.29478129 -34.7479202 16.21754645 -25.11328125 9.1953125 C-24.53787598 8.77491699 -23.9624707 8.35452148 -23.36962891 7.92138672 C-15.2528908 2.01332035 -10.07721273 -0.11105949 0 0 Z " fill="#100A16" transform="translate(222.11328125,59.8046875)"/>
<path d="M0 0 C0.9237442 0.00424484 1.8474884 0.00848969 2.79922485 0.01286316 C5.7336408 0.02958202 8.66735606 0.06722159 11.6015625 0.10546875 C13.59764629 0.12052437 15.59374091 0.13421124 17.58984375 0.14648438 C22.46901772 0.1794633 27.34767153 0.23119861 32.2265625 0.29296875 C32.2265625 1.94296875 32.2265625 3.59296875 32.2265625 5.29296875 C31.03168213 5.29707764 29.83680176 5.30118652 28.60571289 5.30541992 C24.13799941 5.32732563 19.67115238 5.38173275 15.20385742 5.44555664 C13.27685908 5.46863736 11.34973637 5.48310888 9.42260742 5.48852539 C6.63903177 5.497888 3.85738564 5.53903572 1.07421875 5.5859375 C0.22384537 5.58200485 -0.62652802 5.5780722 -1.50267029 5.57402039 C-10.67607643 5.79372347 -17.10896768 10.50482929 -24.0859375 16.04296875 C-25.21299093 16.92908635 -26.3406068 17.81448899 -27.46875 18.69921875 C-28.3026123 19.35664062 -28.3026123 19.35664062 -29.15332031 20.02734375 C-31.55902169 21.906662 -34.00989502 23.72335826 -36.4609375 25.54296875 C-43.15579259 30.54639881 -49.73818409 35.69165315 -56.328125 40.83203125 C-61.35231691 44.74938175 -66.40554677 48.6281535 -71.46484375 52.5 C-73.61510414 54.09305789 -73.61510414 54.09305789 -74.7734375 55.29296875 C-73.52046875 55.3909375 -72.2675 55.48890625 -70.9765625 55.58984375 C-69.32543518 55.73994623 -67.67439776 55.89103989 -66.0234375 56.04296875 C-65.1984375 56.10484375 -64.3734375 56.16671875 -63.5234375 56.23046875 C-59.77987737 56.59274876 -57.40144537 56.84084283 -54.3046875 59.0703125 C-50.38187771 64.764391 -49.33082185 71.50619541 -49.7734375 78.29296875 C-50.5571875 77.81859375 -51.3409375 77.34421875 -52.1484375 76.85546875 C-59.30001195 73.77289356 -66.02078358 73.59806071 -73.3828125 76.15625 C-79.4066003 79.02050204 -84.45620096 83.70409283 -87.15234375 89.86328125 C-89.47996892 98.9688338 -87.70039443 106.51209797 -84.7734375 115.29296875 C-114.1434375 115.29296875 -143.5134375 115.29296875 -173.7734375 115.29296875 C-173.4434375 110.67296875 -173.1134375 106.05296875 -172.7734375 101.29296875 C-171.23558594 101.08542969 -169.69773437 100.87789063 -168.11328125 100.6640625 C-141.26461845 96.83956438 -117.56656603 87.6713802 -92.81201172 77.01855469 C-81.52958993 72.17948342 -70.98560826 68.81158066 -58.7734375 67.29296875 C-58.7734375 66.63296875 -58.7734375 65.97296875 -58.7734375 65.29296875 C-76.60925889 64.83704285 -93.43878856 69.50507533 -109.7734375 76.29296875 C-120.48987648 80.74346355 -131.12813715 84.89315324 -142.2734375 88.16796875 C-143.23983154 88.45414062 -144.20622559 88.7403125 -145.2019043 89.03515625 C-154.20168438 91.59837988 -163.37945065 93.5702413 -172.7734375 93.60546875 C-173.8253125 93.62222656 -174.8771875 93.63898438 -175.9609375 93.65625 C-179.25870216 93.23028873 -180.6007543 92.82604964 -182.7734375 90.29296875 C-183.234375 87.0078125 -183.234375 87.0078125 -183.1484375 83.23046875 C-183.12910156 81.35681641 -183.12910156 81.35681641 -183.109375 79.4453125 C-182.7734375 76.29296875 -182.7734375 76.29296875 -180.7734375 74.29296875 C-178.14160156 73.76220703 -178.14160156 73.76220703 -174.7890625 73.36328125 C-173.55551025 73.21012451 -172.32195801 73.05696777 -171.05102539 72.89916992 C-170.39474152 72.82105072 -169.73845764 72.74293152 -169.06228638 72.66244507 C-165.61274475 72.248814 -162.16778145 71.80029167 -158.72265625 71.3515625 C-158.03388901 71.26209854 -157.34512177 71.17263458 -156.63548279 71.08045959 C-142.56888293 69.23318608 -128.71575814 66.36191798 -114.86935425 63.30435181 C-112.91179118 62.87221369 -110.95310803 62.4451591 -108.99438477 62.01831055 C-91.38025962 58.49227549 -91.38025962 58.49227549 -76.59472656 49.09570312 C-73.28944795 45.82409759 -69.41182424 43.25897417 -65.6484375 40.54296875 C-59.88516319 36.3420581 -54.16915349 32.10586789 -48.5859375 27.66796875 C-13.4400529 -0.23442219 -13.4400529 -0.23442219 0 0 Z " fill="#EFDA04" transform="translate(223.7734375,68.70703125)"/>
<path d="M0 0 C-0.3609375 0.48726562 -0.721875 0.97453125 -1.09375 1.4765625 C-5.61472594 8.38360908 -6.04724235 14.90132585 -5 23 C-4.01 25.97 -3.02 28.94 -2 32 C-31.37 32 -60.74 32 -91 32 C-90.67 27.38 -90.34 22.76 -90 18 C-86.04 17.67 -82.08 17.34 -78 17 C-80 19 -80 19 -83.625 19.125 C-84.73875 19.08375 -85.8525 19.0425 -87 19 C-86.67 19.99 -86.34 20.98 -86 22 C-86.66 22.33 -87.32 22.66 -88 23 C-88.33 23.99 -88.66 24.98 -89 26 C-60.89561085 22.00012439 -33.88374216 13.5691385 -8.28979492 1.24853516 C-3.30739473 -1.10246491 -3.30739473 -1.10246491 0 0 Z " fill="#E5C139" transform="translate(141,152)"/>
<path d="M0 0 C1.87620422 3.16609462 2.09662822 5.35832401 2 9 C2.94101563 8.7834375 3.88203125 8.566875 4.8515625 8.34375 C6.09679687 8.0653125 7.34203125 7.786875 8.625 7.5 C9.85476562 7.2215625 11.08453125 6.943125 12.3515625 6.65625 C15.67152228 6.05908379 18.63908451 5.87590466 22 6 C23.4783226 8.95664519 23.06032783 11.74229737 23 15 C15.97417224 18.93446355 8.76540144 20.96487424 1 23 C-0.77310547 23.47759766 -0.77310547 23.47759766 -2.58203125 23.96484375 C-10.97771434 26.15387526 -19.43364875 27.96808777 -27.9375 29.6875 C-28.99171143 29.90204834 -30.04592285 30.11659668 -31.13208008 30.33764648 C-37.08176905 31.51797205 -42.9610235 32.42695843 -49 33 C-50.87125129 29.14742381 -50.99030231 27.12048864 -50 23 C-45.919064 21.82483331 -41.83488859 20.66134593 -37.75 19.5 C-36.59113281 19.16613281 -35.43226562 18.83226563 -34.23828125 18.48828125 C-33.12324219 18.17246094 -32.00820312 17.85664062 -30.859375 17.53125 C-29.31975098 17.09135742 -29.31975098 17.09135742 -27.74902344 16.64257812 C-25 16 -25 16 -21 16 C-21.2475 15.2265625 -21.2475 15.2265625 -21.5 14.4375 C-22.15049 11.26636124 -22.0620734 8.22781666 -22 5 C-14.95820611 2.18328245 -7.70287223 -0.4969595 0 0 Z " fill="#F8E60F" transform="translate(118,99)"/>
<path d="M0 0 C-0.46209559 1.45012893 -0.97184132 2.88510564 -1.5 4.3125 C-1.7784375 5.11300781 -2.056875 5.91351563 -2.34375 6.73828125 C-6.49816002 12.41140248 -16.27964089 13.09631136 -22.8125 14.375 C-24.39961792 14.68763794 -24.39961792 14.68763794 -26.01879883 15.0065918 C-35.70494502 16.85410255 -45.43355977 18.37637369 -55.1875 19.8125 C-55.92126862 19.92350037 -56.65503723 20.03450073 -57.41104126 20.14886475 C-67.02940651 21.59252839 -76.25203351 22.30332999 -86 22 C-86.04241723 19.66705225 -86.04092937 17.33297433 -86 15 C-84.21603452 13.21603452 -81.53603892 13.4663137 -79.11328125 13.16796875 C-77.87650635 13.01158936 -76.63973145 12.85520996 -75.36547852 12.6940918 C-74.70508575 12.61186371 -74.04469299 12.52963562 -73.36428833 12.44491577 C-57.02548002 10.39506156 -40.88411214 7.82208656 -24.82421875 4.15625 C-24.11600479 3.99473953 -23.40779083 3.83322906 -22.67811584 3.66682434 C-19.14151277 2.85753457 -15.60812213 2.0366679 -12.07836914 1.19799805 C-10.79953857 0.89933838 -9.52070801 0.60067871 -8.203125 0.29296875 C-7.05489258 0.0199292 -5.90666016 -0.25311035 -4.72363281 -0.53442383 C-2 -1 -2 -1 0 0 Z " fill="#F7E60F" transform="translate(128,129)"/>
<path d="M0 0 C0 0.66 0 1.32 0 2 C-0.94875 2.24492187 -1.8975 2.48984375 -2.875 2.7421875 C-11.83516527 5.16606882 -20.2870311 8.26508492 -28.8125 11.9375 C-43.80695435 18.36216928 -58.97846612 22.94513963 -75 26 C-75.8146875 26.18433594 -76.629375 26.36867187 -77.46875 26.55859375 C-80.52467935 27.09149501 -83.46107369 27.20687472 -86.5625 27.25 C-87.67753906 27.27578125 -88.79257813 27.3015625 -89.94140625 27.328125 C-93.39512569 26.95761104 -94.76938981 26.67349163 -97 24 C-97.390625 20.64453125 -97.390625 20.64453125 -97.25 16.8125 C-97.21390625 15.54019531 -97.1778125 14.26789063 -97.140625 12.95703125 C-97.09421875 11.98121094 -97.0478125 11.00539062 -97 10 C-96.67 10 -96.34 10 -96 10 C-96 11.98 -96 13.96 -96 16 C-82.02010952 15.15888626 -68.29866051 13.39252914 -54.5 11.0625 C-53.74376343 10.93534607 -52.98752686 10.80819214 -52.20837402 10.67718506 C-32.07999189 7.3080729 -32.07999189 7.3080729 -12.3125 2.3125 C-8.11272152 1.06507643 -4.43306085 0 0 0 Z " fill="#E5C038" transform="translate(138,135)"/>
<path d="M0 0 C-0.08178711 3.28344727 -0.08178711 3.28344727 -1 7 C-3.36214783 8.61646167 -5.07032676 9.4963806 -7.69140625 10.46484375 C-8.379534 10.74421783 -9.06766174 11.02359192 -9.77664185 11.31143188 C-12.02821324 12.21604876 -14.29350779 13.07761472 -16.5625 13.9375 C-18.12602085 14.55109085 -19.68892539 15.16625439 -21.2512207 15.78295898 C-25.81642813 17.57040925 -30.40323455 19.2955933 -35 21 C-36.1849707 21.44118164 -37.36994141 21.88236328 -38.59082031 22.33691406 C-54.70740255 28.23730554 -72.63860179 34.64902423 -90 34 C-89.42415568 31.61435923 -88.77772405 29.33317216 -88 27 C-86.865625 26.896875 -85.73125 26.79375 -84.5625 26.6875 C-81.51775826 26.30885521 -78.8199698 25.68126872 -75.93359375 24.6484375 C-72.49313915 23.46749131 -69.050583 22.4472565 -65.53125 21.52734375 C-48.30538961 17.0092728 -32.14022304 10.78000659 -15.79296875 3.76953125 C-15.00728516 3.43630859 -14.22160156 3.10308594 -13.41210938 2.75976562 C-11.97746703 2.14887753 -10.5473315 1.52724043 -9.12304688 0.89257812 C-5.75482483 -0.54995247 -3.48226721 -1.51746153 0 0 Z " fill="#F8E70E" transform="translate(142,144)"/>
<path d="M0 0 C6.74222563 -0.19185195 12.88867927 0.46045564 19.5 1.75 C20.38558594 1.90726563 21.27117187 2.06453125 22.18359375 2.2265625 C28.22508916 3.37985825 33.49622571 5.26155308 39 8 C39 8.99 39 9.98 39 11 C23.57728738 19.28256789 1.27897877 20.55738641 -16 20 C-15.4121875 19.56042969 -14.824375 19.12085938 -14.21875 18.66796875 C-13.12046875 17.84232422 -13.12046875 17.84232422 -12 17 C-11.11828125 16.34451172 -11.11828125 16.34451172 -10.21875 15.67578125 C-4.71808677 11.31275518 -2.1959045 6.5877135 0 0 Z " fill="#3E4047" transform="translate(184,175)"/>
<path d="M0 0 C1.78277344 0.02803711 1.78277344 0.02803711 3.6015625 0.05664062 C5.31472656 0.11174805 5.31472656 0.11174805 7.0625 0.16796875 C8.10535156 0.19528076 9.14820313 0.22259277 10.22265625 0.25073242 C13.65073722 0.94412327 14.8341362 2.12108654 17 4.8125 C19.47494724 10.32572202 20.39096942 15.81763559 20 21.8125 C18.824375 21.1009375 18.824375 21.1009375 17.625 20.375 C10.34305316 17.23622981 3.81740016 17.2375734 -3.66015625 19.77734375 C-7.20239963 21.34444641 -9.98597151 23.38817273 -13 25.8125 C-12.979375 24.69875 -12.95875 23.585 -12.9375 22.4375 C-12.73619282 18.98034079 -12.73619282 18.98034079 -14 16.8125 C-5.73617613 13.74520682 2.25302428 11.88470993 11 10.8125 C11 10.1525 11 9.4925 11 8.8125 C5.83369832 8.64028994 1.15176256 8.87760313 -3.9375 9.8125 C-8.57573411 10.65902181 -12.83342285 10.87202148 -17.53125 10.75 C-21.78790229 10.85776335 -25.87063447 11.82848098 -30 12.8125 C-29.20237208 8.62495342 -28.55050718 5.31944737 -26 1.8125 C-23.71093252 1.18268067 -21.62382321 1.002179 -19.25390625 0.91796875 C-17.05519013 0.90142106 -17.05519013 0.90142106 -15.23022461 0.30712891 C-10.28377 -0.78991729 -5.03332875 -0.16104468 0 0 Z " fill="#FAE716" transform="translate(154,125.1875)"/>
<path d="M0 0 C4.51799017 1.9362815 7.30782818 4.92328267 10 9 C10.90535925 15.2369193 9.62301245 19.83275274 6 25 C2.62352326 28.00131266 -0.49314078 28.53896397 -5.0078125 28.3515625 C-9.33956346 27.58713586 -12.05177247 25.07465786 -14.875 21.875 C-16.56484251 17.55651358 -16.65960983 13.5732948 -16 9 C-12.4679016 1.80498473 -7.97617512 -0.85459019 0 0 Z " fill="#F8E50C" transform="translate(163,155)"/>
<path d="M0 0 C5.57894737 3.15789474 5.57894737 3.15789474 7 6 C7.53118252 10.91996928 7.75105553 14.77327597 5.125 19.0625 C2.35895577 21.58448151 1.47766258 21.96394999 -2.3125 22.25 C-6.2584558 21.98247757 -7.9789062 21.50319201 -11 19 C-13.28762174 15.07836273 -13.548897 11.46958988 -13 7 C-9.66281735 1.4545701 -6.45285154 -0.62046649 0 0 Z " fill="#F9E80C" transform="translate(37,165)"/>
<path d="M0 0 C-0.078125 1.81640625 -0.078125 1.81640625 -1 4 C-3.28911049 5.22273525 -5.319276 6.09666526 -7.75 6.9375 C-8.46099854 7.19200928 -9.17199707 7.44651855 -9.90454102 7.70874023 C-23.32244484 12.33714541 -37.3689828 14.92828839 -51.25 17.75 C-52.28503662 17.96084229 -53.32007324 18.17168457 -54.38647461 18.38891602 C-60.25085379 19.55130698 -66.04807143 20.43197362 -72 21 C-72.33 20.01 -72.66 19.02 -73 18 C-72.22736816 17.82460693 -71.45473633 17.64921387 -70.65869141 17.46850586 C-38.20907343 10.08927478 -38.20907343 10.08927478 -6.3203125 0.62890625 C-4 0 -4 0 0 0 Z " fill="#E4BE35" transform="translate(141,111)"/>
<path d="M0 0 C3.5835705 3.5835705 4.760878 9.23301685 5.19140625 14.21484375 C5.18814178 15.81116803 5.10388762 17.40705643 5 19 C3.824375 18.2884375 3.824375 18.2884375 2.625 17.5625 C-4.65694684 14.42372981 -11.18259984 14.4250734 -18.66015625 16.96484375 C-22.20239963 18.53194641 -24.98597151 20.57567273 -28 23 C-27.979375 21.88625 -27.95875 20.7725 -27.9375 19.625 C-27.73619282 16.16784079 -27.73619282 16.16784079 -29 14 C-20.73617613 10.93270682 -12.74697572 9.07220993 -4 8 C-4 7.34 -4 6.68 -4 6 C-12.46204771 5.69778401 -20.63745983 6.85079203 -29 8 C-29 7.01 -29 6.02 -29 5 C-22.95180188 4.11097088 -17.10776514 3.87651617 -11 3.9375 C-10.12988281 3.94201172 -9.25976562 3.94652344 -8.36328125 3.95117188 C-6.24215707 3.9628264 -4.1210689 3.98075643 -2 4 C-1.34 2.68 -0.68 1.36 0 0 Z " fill="#EEDA0D" transform="translate(169,128)"/>
<path d="M0 0 C1.26108078 0.0001133 1.26108078 0.0001133 2.54763794 0.00022888 C3.91020218 0.00797081 3.91020218 0.00797081 5.30029297 0.01586914 C6.22969696 0.01728409 7.15910095 0.01869904 8.1166687 0.02015686 C11.09197171 0.02576486 14.06720011 0.03831871 17.04248047 0.05102539 C19.0568023 0.05603936 21.07112531 0.06060245 23.08544922 0.06469727 C28.02948849 0.07573689 32.97347182 0.0930069 37.91748047 0.11352539 C37.91748047 1.76352539 37.91748047 3.41352539 37.91748047 5.11352539 C36.70688965 5.13858154 35.49629883 5.1636377 34.24902344 5.18945312 C29.7425746 5.28387423 25.23626746 5.38400927 20.72998047 5.48583984 C18.78242313 5.52905775 16.8348311 5.5707417 14.88720703 5.61083984 C12.08208785 5.66886197 9.27714114 5.73246323 6.47216797 5.79711914 C5.60631073 5.81383163 4.74045349 5.83054413 3.84835815 5.84776306 C-0.55643861 5.95485094 -4.74551086 6.24674058 -9.08251953 7.11352539 C-9.41251953 6.45352539 -9.74251953 5.79352539 -10.08251953 5.11352539 C-6.64719509 1.56369013 -4.96080698 -0.01485272 0 0 Z " fill="#F7E915" transform="translate(218.08251953125,68.886474609375)"/>
<path d="M0 0 C0.48919922 1.01320312 0.48919922 1.01320312 0.98828125 2.046875 C1.64376953 3.38492188 1.64376953 3.38492188 2.3125 4.75 C2.74175781 5.63171875 3.17101562 6.5134375 3.61328125 7.421875 C4.90103146 9.81600215 6.30915754 11.87776958 8 14 C2.7694488 14.20352339 -1.80302665 13.53064327 -6.8125 12.125 C-7.47958984 11.95097656 -8.14667969 11.77695313 -8.83398438 11.59765625 C-11.86282173 10.77244325 -13.74435162 10.25564838 -16 8 C-15.86328125 5.98046875 -15.86328125 5.98046875 -15 4 C-13.29296875 2.98828125 -13.29296875 2.98828125 -11.1875 2.3125 C-10.15689453 1.96638672 -10.15689453 1.96638672 -9.10546875 1.61328125 C-5.93472104 0.68970539 -3.32683836 0 0 0 Z " fill="#3C3E4A" transform="translate(17,178)"/>
<path d="M0 0 C0 0.66 0 1.32 0 2 C-29.37 2 -58.74 2 -89 2 C-89 1.34 -89 0.68 -89 0 C-77.9865366 -0.15381961 -66.9730132 -0.30200089 -55.95937729 -0.4429636 C-50.8454345 -0.50859421 -45.73153291 -0.57617439 -40.61767578 -0.64819336 C-35.6834958 -0.71761047 -30.74927339 -0.78192822 -25.81497955 -0.84269524 C-23.93148633 -0.86679016 -22.04801578 -0.89272944 -20.16457367 -0.92053413 C-17.52869714 -0.95913324 -14.89281659 -0.99120278 -12.25683594 -1.02172852 C-11.47640427 -1.03467453 -10.6959726 -1.04762054 -9.89189148 -1.06095886 C-6.40797325 -1.0949882 -3.35014517 -0.93755923 0 0 Z " fill="#E9C524" transform="translate(139,182)"/>
<path d="M0 0 C3.5835705 3.5835705 4.760878 9.23301685 5.19140625 14.21484375 C5.18814178 15.81116803 5.10388762 17.40705643 5 19 C2.125 18 2.125 18 -1 16 C-2.12918119 13.33251401 -2.49583237 10.88750551 -3 8 C-3.33 7.34 -3.66 6.68 -4 6 C-12.46204771 5.69778401 -20.63745983 6.85079203 -29 8 C-29 7.01 -29 6.02 -29 5 C-22.95180188 4.11097088 -17.10776514 3.87651617 -11 3.9375 C-10.12988281 3.94201172 -9.25976562 3.94652344 -8.36328125 3.95117188 C-6.24215707 3.9628264 -4.1210689 3.98075643 -2 4 C-1.34 2.68 -0.68 1.36 0 0 Z " fill="#D6B42C" transform="translate(169,128)"/>
<path d="M0 0 C0 0.66 0 1.32 0 2 C-1.0415625 2.27972656 -2.083125 2.55945313 -3.15625 2.84765625 C-11.75298301 5.22839878 -19.89249874 8.01869427 -27.99609375 11.76391602 C-32.83649956 14 -32.83649956 14 -35 14 C-34.67 13.01 -34.34 12.02 -34 11 C-33.05125 10.9175 -32.1025 10.835 -31.125 10.75 C-30.09375 10.5025 -29.0625 10.255 -28 10 C-27.55889893 9.0394873 -27.55889893 9.0394873 -27.10888672 8.05957031 C-26 6 -26 6 -23.81689453 4.99511719 C-22.93114746 4.76469727 -22.04540039 4.53427734 -21.1328125 4.296875 C-19.68068359 3.91015625 -19.68068359 3.91015625 -18.19921875 3.515625 C-17.18472656 3.26296875 -16.17023438 3.0103125 -15.125 2.75 C-14.11824219 2.481875 -13.11148438 2.21375 -12.07421875 1.9375 C-7.87865195 0.84542684 -4.36242675 0 0 0 Z " fill="#DCB92D" transform="translate(138,135)"/>
<path d="M0 0 C9.57 0 19.14 0 29 0 C29 0.99 29 1.98 29 3 C24.54178834 3.08674429 20.08379196 3.14030513 15.625 3.1875 C14.35398438 3.21263672 13.08296875 3.23777344 11.7734375 3.26367188 C10.56171875 3.27333984 9.35 3.28300781 8.1015625 3.29296875 C6.98088379 3.3086792 5.86020508 3.32438965 4.70556641 3.34057617 C3.81272949 3.22818604 2.91989258 3.1157959 2 3 C1.34 2.01 0.68 1.02 0 0 Z " fill="#F9E604" transform="translate(227,70)"/>
<path d="M0 0 C0 0.66 0 1.32 0 2 C-0.66 2 -1.32 2 -2 2 C-2.66 3.98 -3.32 5.96 -4 8 C-1.03 8.33 1.94 8.66 5 9 C5 9.33 5 9.66 5 10 C3.89140625 9.98839844 2.7828125 9.97679688 1.640625 9.96484375 C0.17708502 9.95546208 -1.28645678 9.94636229 -2.75 9.9375 C-3.47960937 9.92912109 -4.20921875 9.92074219 -4.9609375 9.91210938 C-8.48670558 9.89608316 -11.61034916 10.04707287 -15 11 C-15.33 10.34 -15.66 9.68 -16 9 C-14.7315625 8.443125 -14.7315625 8.443125 -13.4375 7.875 C-9.97189103 5.98466783 -7.46048592 3.89714877 -4.61328125 1.20703125 C-3 0 -3 0 0 0 Z " fill="#E0CE08" transform="translate(152,116)"/>
<path d="M0 0 C0 0.99 0 1.98 0 3 C-1.8984375 4.5703125 -1.8984375 4.5703125 -4.375 6.125 C-5.18710938 6.64320313 -5.99921875 7.16140625 -6.8359375 7.6953125 C-9 9 -9 9 -11 10 C-10.979375 8.88625 -10.95875 7.7725 -10.9375 6.625 C-10.73619282 3.16784079 -10.73619282 3.16784079 -12 1 C-7.67265609 -1.22923777 -4.71599818 -0.92470553 0 0 Z " fill="#EFDD08" transform="translate(152,141)"/>
<path d="M0 0 C0 1.32 0 2.64 0 4 C-4.455 4.495 -4.455 4.495 -9 5 C-9.33 4.34 -9.66 3.68 -10 3 C-13.02934491 2.34227572 -13.02934491 2.34227572 -16 2 C-16 1.67 -16 1.34 -16 1 C-10.61509359 0.08342019 -5.45769811 -0.11138159 0 0 Z " fill="#433C27" transform="translate(165,133)"/>
<path d="M0 0 C0.82242188 0.00451172 1.64484375 0.00902344 2.4921875 0.01367188 C4.49482396 0.02531511 6.49742227 0.04324444 8.5 0.0625 C8.17 0.7225 7.84 1.3825 7.5 2.0625 C5.7675 2.000625 5.7675 2.000625 4 1.9375 C-3.21999473 1.91432185 -10.36182267 3.08154802 -17.5 4.0625 C-17.5 3.0725 -17.5 2.0825 -17.5 1.0625 C-11.61599345 0.20554033 -5.94090708 -0.06289234 0 0 Z " fill="#D2C00D" transform="translate(157.5,131.9375)"/>
<path d="M0 0 C2.97 0.495 2.97 0.495 6 1 C5.625 3.4375 5.625 3.4375 5 6 C1.78658631 7.60670684 -1.62958968 6.82510855 -5.125 6.5625 C-6.25615234 6.48418945 -6.25615234 6.48418945 -7.41015625 6.40429688 C-9.2737937 6.27454996 -11.13694996 6.13792512 -13 6 C-13 5.67 -13 5.34 -13 5 C-7.06 4.505 -7.06 4.505 -1 4 C-0.67 2.68 -0.34 1.36 0 0 Z " fill="#F3E011" transform="translate(163,126)"/>
<path d="M0 0 C1.51400391 0.01740234 1.51400391 0.01740234 3.05859375 0.03515625 C4.07050781 0.04417969 5.08242187 0.05320313 6.125 0.0625 C7.29869141 0.07990234 7.29869141 0.07990234 8.49609375 0.09765625 C8.82609375 1.08765625 9.15609375 2.07765625 9.49609375 3.09765625 C6.52609375 3.75765625 3.55609375 4.41765625 0.49609375 5.09765625 C0.49609375 4.10765625 0.49609375 3.11765625 0.49609375 2.09765625 C-0.82390625 1.76765625 -2.14390625 1.43765625 -3.50390625 1.09765625 C-2.50390625 0.09765625 -2.50390625 0.09765625 0 0 Z " fill="#181426" transform="translate(146.50390625,134.90234375)"/>
<path d="M0 0 C0 0.66 0 1.32 0 2 C-4.95 3.32 -9.9 4.64 -15 6 C-15.33 5.01 -15.66 4.02 -16 3 C-14.08487728 2.49411853 -12.16783078 1.99551609 -10.25 1.5 C-8.64898437 1.08234375 -8.64898437 1.08234375 -7.015625 0.65625 C-4 0 -4 0 0 0 Z " fill="#C5B610" transform="translate(138,135)"/>
<path d="M0 0 C0.99 0.33 1.98 0.66 3 1 C2.835 1.495 2.67 1.99 2.5 2.5 C1.79311182 6.03444089 1.93994845 9.39690701 2 13 C1.34 13 0.68 13 0 13 C-0.98248196 8.94726192 -1.16017882 5.16464926 -1 1 C-0.67 0.67 -0.34 0.34 0 0 Z " fill="#EEDE05" transform="translate(97,103)"/>
<path d="M0 0 C-3.1964086 1.06546953 -5.65747276 1.07427838 -9 1 C-8.67 1.99 -8.34 2.98 -8 4 C-8.99 4.495 -8.99 4.495 -10 5 C-10.66 6.32 -11.32 7.64 -12 9 C-12 6.03 -12 3.06 -12 0 C-3.42857143 -1.28571429 -3.42857143 -1.28571429 0 0 Z " fill="#D3C510" transform="translate(63,170)"/>
<path d="M0 0 C-1 3 -1 3 -3.3125 4.1875 C-6 5 -6 5 -10 5 C-10 4.01 -10 3.02 -10 2 C-8.7090864 1.66376204 -7.41723903 1.33110751 -6.125 1 C-5.40570313 0.814375 -4.68640625 0.62875 -3.9453125 0.4375 C-2 0 -2 0 0 0 Z " fill="#E6D909" transform="translate(81,165)"/>
<path d="M0 0 C0.886875 0.103125 1.77375 0.20625 2.6875 0.3125 C2.089375 0.56 1.49125 0.8075 0.875 1.0625 C-1.59897521 2.47620012 -2.74620255 3.96305383 -4.3125 6.3125 C-5.6325 5.9825 -6.9525 5.6525 -8.3125 5.3125 C-4.12788462 0.38942308 -4.12788462 0.38942308 0 0 Z " fill="#E2D504" transform="translate(34.3125,164.6875)"/>
<path d="M0 0 C0.33 0.99 0.66 1.98 1 3 C0.67 3.66 0.34 4.32 0 5 C-2.875 5.125 -2.875 5.125 -6 5 C-6.66 4.34 -7.32 3.68 -8 3 C-5.36 2.01 -2.72 1.02 0 0 Z " fill="#EADB05" transform="translate(138,143)"/>
<path d="M0 0 C-0.33 0.99 -0.66 1.98 -1 3 C-3.64 3 -6.28 3 -9 3 C-9 2.34 -9 1.68 -9 1 C-6.04335481 -0.4783226 -3.25770263 -0.06032783 0 0 Z " fill="#1F1E2B" transform="translate(166,134)"/>
<path d="M0 0 C1.32 0 2.64 0 4 0 C3.8125 1.875 3.8125 1.875 3 4 C0.4375 5.25 0.4375 5.25 -2 6 C-2 3 -2 3 0 0 Z " fill="#E2BE2B" transform="translate(137,111)"/>
<path d="M0 0 C0.99 1.32 1.98 2.64 3 4 C2.01 5.485 2.01 5.485 1 7 C-0.32 6.67 -1.64 6.34 -3 6 C-1.125 1.125 -1.125 1.125 0 0 Z " fill="#E9D507" transform="translate(179,93)"/>
<path d="M0 0 C0.99 0.66 1.98 1.32 3 2 C-1.455 2.495 -1.455 2.495 -6 3 C-6.33 2.01 -6.66 1.02 -7 0 C-3.98968256 -0.93423645 -3.13349732 -1.04449911 0 0 Z " fill="#DBB329" transform="translate(75,129)"/>
<path d="M0 0 C0.81210937 0.47566406 0.81210937 0.47566406 1.640625 0.9609375 C4.4157149 2.18307974 6.73208098 2.40943436 9.75 2.625 C11.22726563 2.73714844 11.22726563 2.73714844 12.734375 2.8515625 C13.48203125 2.90054688 14.2296875 2.94953125 15 3 C15 3.33 15 3.66 15 4 C12.89646505 4.0810206 10.79204048 4.13919907 8.6875 4.1875 C7.51574219 4.22230469 6.34398437 4.25710937 5.13671875 4.29296875 C2 4 2 4 0.08203125 2.48828125 C-0.27503906 1.99714844 -0.63210937 1.50601563 -1 1 C-0.67 0.67 -0.34 0.34 0 0 Z " fill="#DAB123" transform="translate(43,158)"/>
<path d="M0 0 C0.66 0.33 1.32 0.66 2 1 C2 2.32 2 3.64 2 5 C0.35 5.33 -1.3 5.66 -3 6 C-1.125 1.125 -1.125 1.125 0 0 Z " fill="#F6E004" transform="translate(200,78)"/>
<path d="M0 0 C0.66 0.66 1.32 1.32 2 2 C0.35 3.65 -1.3 5.3 -3 7 C-3 3.48283697 -2.17554415 2.62878252 0 0 Z " fill="#F2E203" transform="translate(42,179)"/>
<path d="M0 0 C1.98 0.66 3.96 1.32 6 2 C6 2.33 6 2.66 6 3 C3.69 3.33 1.38 3.66 -1 4 C-0.67 2.68 -0.34 1.36 0 0 Z " fill="#251C17" transform="translate(65,165)"/>
<path d="M0 0 C0 0.66 0 1.32 0 2 C-2.875 2.125 -2.875 2.125 -6 2 C-6.66 1.34 -7.32 0.68 -8 0 C-4.94736336 -0.98120464 -3.05263664 -0.98120464 0 0 Z " fill="#D9C818" transform="translate(156,139)"/>
<path d="M0 0 C-0.33 0.99 -0.66 1.98 -1 3 C-2.875 3.875 -2.875 3.875 -5 4 C-6.75 2.5625 -6.75 2.5625 -8 1 C-2.25 0 -2.25 0 0 0 Z " fill="#E8DB0B" transform="translate(131,106)"/>
</svg>
